<svg class="block relative z-10" xmlns="http://www.w3.org/2000/svg" fill="none" viewBox="0 0 568 633"><g class="namada-icon" fill="#FF0" clip-path="url(#a-1230291839218301)" style="translate: none; rotate: none; scale: none; transform-origin: 0px 0px;" data-svg-origin="284.09899139404297 316.38597869873047" transform="matrix(1,0,0,1,0,0)"><path d="M307.699 316.39h-22.753v22.754h22.753V316.39Zm-45.518-22.763c12.559 0 22.753 10.196 22.753 22.753h-22.753v-22.753Zm0 22.763-13.137 22.755h26.274l-13.137-22.755Zm45.601-.017c6.28 0 11.37-5.091 11.37-11.37 0-6.28-5.09-11.37-11.37-11.37-6.279 0-11.37 5.09-11.37 11.37 0 6.279 5.091 11.37 11.37 11.37Z"></path><path d="M284.099 377.231c-16.253 0-31.533-6.329-43.025-17.821-11.493-11.491-17.822-26.772-17.822-43.024 0-16.252 6.329-31.533 17.822-43.025 11.492-11.493 26.772-17.822 43.025-17.822s31.532 6.329 43.025 17.822c11.493 11.492 17.822 26.772 17.822 43.025s-6.329 31.533-17.822 43.025c-11.493 11.493-26.772 17.822-43.025 17.822v-.002Zm0-114.152c-14.238 0-27.625 5.544-37.694 15.613-10.069 10.068-15.613 23.454-15.613 37.694 0 14.24 5.544 27.625 15.613 37.694 10.069 10.069 23.456 15.613 37.694 15.613 14.238 0 27.625-5.544 37.694-15.613 10.068-10.069 15.613-23.456 15.613-37.694 0-14.238-5.545-27.625-15.613-37.694-10.069-10.069-23.456-15.613-37.694-15.613Z"></path></g><path class="lines" stroke="#FF0" d="m425.508 422.141 20.156 34.912-20.156 34.911h-40.313l-20.156-34.911 20.156-34.912h40.313Z" style="stroke-dashoffset: 0px; stroke-dasharray: 245; stroke: rgb(255, 255, 0); opacity: 1;"></path><path class="lines" stroke="#FF0" d="m304.255 422.141 20.156 34.912-20.156 34.911h-40.313l-20.156-34.911 20.156-34.912h40.313Z" style="stroke-dashoffset: 0px; stroke-dasharray: 245; stroke: rgb(255, 255, 0); opacity: 1;"></path><path class="lines" stroke="#FF0" d="m304.255 492.583 20.156 34.911-20.156 34.912h-40.313l-20.156-34.912 20.156-34.911h40.313Zm60.845-35.03 20.157 34.912-20.157 34.911h-40.312l-20.156-34.911 20.156-34.912H365.1Z" style="stroke-dashoffset: 0px; stroke-dasharray: 245; stroke: rgb(255, 255, 0); opacity: 1;"></path><path class="lines" stroke="#FF0" d="m365.1 176.003 20.157 34.911-20.157 34.912h-40.312l-20.156-34.912 20.156-34.911H365.1Z" style="stroke-dashoffset: 0px; stroke-dasharray: 245; stroke: rgb(255, 255, 0); opacity: 1;"></path><path class="lines" stroke="#FF0" d="m365.1 105.777 20.157 34.912L365.1 175.6h-40.312l-20.156-34.911 20.156-34.912H365.1Z" style="stroke-dashoffset: 0px; stroke-dasharray: 245; stroke: rgb(255, 255, 0); opacity: 1;"></path><path class="lines" stroke="#FF0" d="m425.508 211.032 20.156 34.912-20.156 34.911h-40.313l-20.156-34.911 20.156-34.912h40.313Z" style="stroke-dashoffset: 0px; stroke-dasharray: 245; stroke: rgb(255, 255, 0); opacity: 1;"></path><path class="lines" stroke="#FF0" d="m425.508 140.591 20.156 34.912-20.156 34.911h-40.313l-20.156-34.911 20.156-34.912h40.313Z" style="stroke-dashoffset: 0px; stroke-dasharray: 245; stroke: rgb(255, 255, 0); opacity: 1;"></path><path class="lines" stroke="#FF0" d="m243.847 176.218 20.156 34.911-20.156 34.912h-40.313l-20.156-34.912 20.156-34.911h40.313Z" style="stroke-dashoffset: 0px; stroke-dasharray: 245; stroke: rgb(255, 255, 0); opacity: 1;"></path><path class="lines" stroke="#FF0" d="m122.53 176.218 20.156 34.911-20.156 34.912H82.2178l-20.1562-34.912 20.1562-34.911H122.53Z" style="stroke-dashoffset: 0px; stroke-dasharray: 245; stroke: rgb(255, 255, 0); opacity: 1;"></path><path class="lines" stroke="#FF0" d="m122.53 105.777 20.156 34.912L122.53 175.6H82.2178l-20.1562-34.911 20.1562-34.912H122.53Zm-60.7821 34.814 20.1562 34.912-20.1562 34.911H21.4355L1.27936 175.503l20.15614-34.912h40.3124ZM183.001 70.5324l20.156 34.9116-20.156 34.911h-40.313l-20.156-34.911 20.156-34.9116h40.313Zm60.846-35.1968 20.156 34.9115-20.156 34.9119h-40.313l-20.156-34.9119 20.156-34.9115h40.313ZM304.633.961581 324.789 35.8731l-20.156 34.9116H264.32l-20.156-34.9116L264.32.96158l40.313.000001Zm60.53 34.813919 20.156 34.9116-20.156 34.9119h-40.312l-20.157-34.9119 20.157-34.9116h40.312Zm60.723 34.9717 20.156 34.9118-20.156 34.911h-40.313l-20.156-34.911 20.156-34.9118h40.313Zm60.467 35.0298 20.157 34.912-20.157 34.911h-40.312l-20.156-34.911 20.156-34.912h40.312ZM61.7479 211.032l20.1562 34.912-20.1562 34.911H21.4355L1.27936 245.944l20.15614-34.912h40.3124Zm485.0141 0 20.156 34.912-20.156 34.911h-40.313l-20.156-34.911 20.156-34.912h40.313Z" style="stroke-dashoffset: 0px; stroke-dasharray: 245; stroke: rgb(255, 255, 0); opacity: 1;"></path><path class="lines" stroke="#FF0" d="m546.762 141.428 20.156 34.912-20.156 34.911h-40.313l-20.156-34.911 20.156-34.912h40.313Zm0 140.04 20.156 34.912-20.156 34.911h-40.313l-20.156-34.911 20.156-34.912h40.313Zm0 70.447 20.156 34.911-20.156 34.912h-40.313l-20.156-34.912 20.156-34.911h40.313Zm0 70.824 20.156 34.912-20.156 34.911h-40.313l-20.156-34.911 20.156-34.912h40.313ZM61.7479 281.468l20.1562 34.912-20.1562 34.911H21.4355L1.27936 316.38l20.15614-34.912h40.3124Zm0 70.232 20.1562 34.911-20.1562 34.912H21.4355L1.27936 386.611 21.4355 351.7h40.3124Zm0 70.039 20.1562 34.912-20.1562 34.911H21.4355L1.27936 456.651l20.15614-34.912h40.3124ZM122.53 457.6l20.156 34.912-20.156 34.911H82.2178l-20.1562-34.911L82.2178 457.6H122.53Zm60.471 34.983 20.156 34.911-20.156 34.912h-40.313l-20.156-34.912 20.156-34.911h40.313Zm60.846 34.374 20.156 34.911-20.156 34.912h-40.313l-20.156-34.912 20.156-34.911h40.313Zm60.786 35.412 20.156 34.911-20.156 34.912H264.32l-20.156-34.912 20.156-34.911h40.313Zm60.53-34.814 20.156 34.911-20.156 34.912h-40.312l-20.157-34.912 20.157-34.911h40.312Zm60.534-34.972 20.156 34.911-20.156 34.912h-40.312l-20.156-34.912 20.156-34.911h40.312Z" style="stroke-dashoffset: 0px; stroke-dasharray: 245; stroke: rgb(255, 255, 0); opacity: 1;"></path><path class="lines" stroke="#FF0" d="m486.479 456.931 20.157 34.912-20.157 34.911h-40.312l-20.156-34.911 20.156-34.912h40.312Z" style="stroke-dashoffset: 0px; stroke-dasharray: 245; stroke: rgb(255, 255, 0); opacity: 1;"></path><path class="lines" stroke="#FF0" d="m243.847 105.777 20.156 34.912-20.156 34.911h-40.313l-20.156-34.911 20.156-34.912h40.313Z" style="stroke-dashoffset: 0px; stroke-dasharray: 245; stroke: rgb(255, 255, 0); opacity: 1;"></path><path class="lines" stroke="#FF0" d="m304.255 141.189 20.156 34.912-20.156 34.911h-40.313l-20.156-34.911 20.156-34.912h40.313Z" style="stroke-dashoffset: 0px; stroke-dasharray: 245; stroke: rgb(255, 255, 0); opacity: 1;"></path><path class="lines" stroke="#FF0" d="m304.255 70.5324 20.156 34.9116-20.156 34.911h-40.313l-20.156-34.911 20.156-34.9116h40.313ZM486.353 246.444l20.157 34.912-20.157 34.912h-40.312l-20.156-34.912 20.156-34.912h40.312Zm0-70.226 20.157 34.912-20.157 34.911h-40.312l-20.156-34.911 20.156-34.912h40.312ZM122.53 246.444l20.156 34.912-20.156 34.912H82.2178l-20.1562-34.912 20.1562-34.912H122.53Z" style="stroke-dashoffset: 0px; stroke-dasharray: 245; stroke: rgb(255, 255, 0); opacity: 1;"></path><path class="lines" stroke="#FF0" d="m183.001 211.032 20.156 34.912-20.156 34.911h-40.313l-20.156-34.911 20.156-34.912h40.313Z" style="stroke-dashoffset: 0px; stroke-dasharray: 245; stroke: rgb(255, 255, 0); opacity: 1;"></path><path class="lines" stroke="#FF0" d="m183.001 140.591 20.156 34.912-20.156 34.911h-40.313l-20.156-34.911 20.156-34.912h40.313Z" style="stroke-dashoffset: 0px; stroke-dasharray: 245; stroke: rgb(255, 255, 0); opacity: 1;"></path><path class="lines" stroke="#FF0" d="m425.508 281.474 20.156 34.911-20.156 34.912h-40.313l-20.156-34.912 20.156-34.911h40.313Z" style="stroke-dashoffset: 0px; stroke-dasharray: 245; stroke: rgb(255, 255, 0); opacity: 1;"></path><path class="lines" stroke="#FF0" d="m486.353 316.886 20.157 34.911-20.157 34.912h-40.312l-20.156-34.912 20.156-34.911h40.312Zm-363.823 0 20.156 34.911-20.156 34.912H82.2178l-20.1562-34.912 20.1562-34.911H122.53Z" style="stroke-dashoffset: 0px; stroke-dasharray: 245; stroke: rgb(255, 255, 0); opacity: 1;"></path><path class="lines" stroke="#FF0" d="m183.001 281.474 20.156 34.911-20.156 34.912h-40.313l-20.156-34.912 20.156-34.911h40.313Zm0 70.441 20.156 34.911-20.156 34.912h-40.313l-20.156-34.912 20.156-34.911h40.313Z" style="stroke-dashoffset: 0px; stroke-dasharray: 245; stroke: rgb(255, 255, 0); opacity: 1;"></path><path class="lines" stroke="#FF0" d="m183.001 422.141 20.156 34.912-20.156 34.911h-40.313l-20.156-34.911 20.156-34.912h40.313Z" style="stroke-dashoffset: 0px; stroke-dasharray: 245; stroke: rgb(255, 255, 0); opacity: 1;"></path><path class="lines" stroke="#FF0" d="m425.508 351.915 20.156 34.911-20.156 34.912h-40.313l-20.156-34.912 20.156-34.911h40.313Z" style="stroke-dashoffset: 0px; stroke-dasharray: 245; stroke: rgb(255, 255, 0); opacity: 1;"></path><path class="lines" stroke="#FF0" d="m486.353 387.327 20.157 34.911-20.157 34.912h-40.312l-20.156-34.912 20.156-34.911h40.312Z" style="stroke-dashoffset: 0px; stroke-dasharray: 245; stroke: rgb(255, 255, 0); opacity: 1;"></path><path class="lines" stroke="#FF0" d="m365.1 387.327 20.157 34.911L365.1 457.15h-40.312l-20.156-34.912 20.156-34.911H365.1Zm-121.316 0 20.156 34.911-20.156 34.912h-40.312l-20.157-34.912 20.157-34.911h40.312Z" style="stroke-dashoffset: 0px; stroke-dasharray: 245; stroke: rgb(255, 255, 0); opacity: 1;"></path><path class="lines" stroke="#FF0" d="m122.53 387.327 20.156 34.911-20.156 34.912H82.2178l-20.1562-34.912 20.1562-34.911H122.53Zm121.254 69.843 20.156 34.912-20.156 34.911h-40.312l-20.157-34.911 20.157-34.912h40.312Z" style="stroke-dashoffset: 0px; stroke-dasharray: 245; stroke: rgb(255, 255, 0); opacity: 1;"></path><path class="token" fill="#FF0" d="M273.659 445.274c12.559 0 22.753 10.196 22.753 22.754h-22.753v-22.754Z" style="translate: none; rotate: none; scale: none; transform-origin: 0px 0px; opacity: 1;" data-svg-origin="285.0354919433594 456.65098571777344" transform="matrix(1,0,0,1,0,0)"></path><path class="token" fill="#FF0" d="M221.879 437.989c-3.115 0-6.16-.924-8.751-2.654-2.59-1.731-4.609-4.191-5.801-7.07-1.192-2.878-1.504-6.045-.896-9.101.608-3.055 2.108-5.862 4.311-8.065 2.203-2.202 5.009-3.702 8.065-4.31 3.056-.608 6.223-.296 9.101.897 2.878 1.192 5.338 3.211 7.069 5.801 1.73 2.591 2.654 5.636 2.654 8.752-.005 4.176-1.666 8.18-4.619 11.133-2.953 2.952-6.957 4.614-11.133 4.618v-.001Zm0-22.442c-1.323 0-2.616.392-3.716 1.127s-1.958 1.78-2.464 3.003c-.507 1.222-.639 2.567-.381 3.865s.895 2.49 1.831 3.425c.936.936 2.128 1.573 3.425 1.831 1.298.258 2.643.126 3.865-.381 1.223-.506 2.268-1.363 3.003-2.464.735-1.1 1.127-2.393 1.127-3.716-.003-1.774-.708-3.474-1.962-4.728-1.254-1.254-2.954-1.959-4.728-1.962Z" style="translate: none; rotate: none; scale: none; transform-origin: 0px 0px; opacity: 1;" data-svg-origin="221.87960052490234 422.2381286621094" transform="matrix(1,0,0,1,0,0)"></path><rect class="token" width="20.1271" height="20.1271" x="330.775" y="422.238" fill="#FF0" transform="matrix(0.70711,-0.70711,0.70711,0.70711,-201.68809,357.5636)" style="translate: none; rotate: none; scale: none; transform-origin: 0px 0px; opacity: 1;" data-svg-origin="340.83854389190674 432.30155658721924"></rect><rect class="token" width="28.5563" height="8.31931" x="276.708" y="163.302" fill="#FF0" transform="matrix(0.70711,0.70711,-0.70711,0.70711,196.51745,-147.83354)" style="translate: none; rotate: none; scale: none; transform-origin: 0px 0px; opacity: 1;" data-svg-origin="290.98615741729736 167.46165704727173"></rect><rect class="token" width="28.5563" height="8.31931" x="270.825" y="183.495" fill="#FF0" transform="matrix(0.70711,-0.70711,0.70711,0.70711,-50.42927,245.24696)" style="translate: none; rotate: none; scale: none; transform-origin: 0px 0px; opacity: 1;" data-svg-origin="285.1031312942505 187.65465021133423"></rect><rect class="token" width="28.5563" height="8.31931" x="288.022" y="512.888" fill="#FF0" transform="matrix(0,1,-1,0,800.91,224.866)" style="translate: none; rotate: none; scale: none; transform-origin: 0px 0px; opacity: 1;" data-svg-origin="302.3001527786255 517.047655582428"></rect><rect class="token" width="28.5563" height="8.31931" x="269.584" y="523.007" fill="#FF0" style="translate: none; rotate: none; scale: none; transform-origin: 0px 0px; opacity: 1;" data-svg-origin="283.8621644973755 527.1666741371155" transform="matrix(1,0,0,1,0,0)"></rect><circle class="token" cx="405.352" cy="245.944" r="12.3164" fill="#FF0" style="translate: none; rotate: none; scale: none; transform-origin: 0px 0px; opacity: 1;" data-svg-origin="405.35201358795166 245.94397830963135" transform="matrix(1,0,0,1,0,0)"></circle><path class="token" fill="#FF0" d="m162.918 232.508 13.307 23.049H149.61l13.308-23.049Z" style="translate: none; rotate: none; scale: none; transform-origin: 0px 0px; opacity: 1;" data-svg-origin="162.9175033569336 244.0324935913086" transform="matrix(1,0,0,1,0,0)"></path><path class="token" fill="#FF0" d="m297.546 105.659-23.049 13.307V92.3516l23.049 13.3074Z" style="translate: none; rotate: none; scale: none; transform-origin: 0px 0px; opacity: 1;" data-svg-origin="286.021484375 105.65879821777344" transform="matrix(1,0,0,1,0,0)"></path><path class="token" fill="#FF0" d="m162.918 402.192-13.307-23.049h26.615l-13.308 23.049Zm249.652-2.659h-14.437l-7.22-12.704 7.22-12.708h14.438l7.219 12.708-7.22 12.704Zm-10.002-7.809h5.566l2.784-4.9-2.784-4.899h-5.566l-2.784 4.899 2.784 4.9Z" style="translate: none; rotate: none; scale: none; transform-origin: 0px 0px; opacity: 1;" data-svg-origin="284.7004852294922 388.15647888183594" transform="matrix(1,0,0,1,0,0)"></path><rect class="token" width="19.9491" height="19.9491" x="213.716" y="201.09" fill="#FF0" style="translate: none; rotate: none; scale: none; transform-origin: 0px 0px; opacity: 1;" data-svg-origin="223.69055366516113 211.06456184387207" transform="matrix(1,0,0,1,0,0)"></rect><rect class="token" width="12.9199" height="12.9199" x="89.4541" y="268.589" fill="#FF0" style="translate: none; rotate: none; scale: none; transform-origin: 0px 0px; opacity: 1;" data-svg-origin="95.91405153274536 275.048969745636" transform="matrix(1,0,0,1,0,0)"></rect><rect class="token" width="12.9199" height="12.9199" x="102.374" y="281.418" fill="#FF0" style="translate: none; rotate: none; scale: none; transform-origin: 0px 0px; opacity: 1;" data-svg-origin="108.83395051956177 287.8779492378235" transform="matrix(1,0,0,1,0,0)"></rect><path class="token" fill="#FF0" d="M415.668 326.56h-20.633v-20.633h20.633v20.633Zm-14.7-5.933h8.763v-8.761h-8.763v8.761Z" style="translate: none; rotate: none; scale: none; transform-origin: 0px 0px; opacity: 1;" data-svg-origin="405.35150146484375 316.2434997558594" transform="matrix(1,0,0,1,0,0)"></path><path class="token" fill="#FF0" d="m162.314 472.301-14.589-14.59 14.589-14.589 14.59 14.589-14.59 14.59Zm-6.199-14.589 6.196 6.196 6.195-6.195-6.196-6.196-6.195 6.195Z" style="translate: none; rotate: none; scale: none; transform-origin: 0px 0px; opacity: 1;" data-svg-origin="162.31449127197266 457.7115020751953" transform="matrix(1,0,0,1,0,0)"></path><path class="token" fill="#FF0" d="M348.929 225.373h-7.855l-9.059-10.484-.027-14.452 7.209-.014.022 11.728 5.131 5.938h1.303l5.133-5.94.031-11.729 7.209.02-.039 14.453-9.058 10.48Zm-190.007 77.188h7.855l9.06 10.483.026 14.452-7.208.014-.022-11.728-5.132-5.938h-1.302l-5.133 5.94-.032 11.729-7.208-.02.039-14.453 9.057-10.479Z" style="translate: none; rotate: none; scale: none; transform-origin: 0px 0px; opacity: 1;" data-svg-origin="253.92599487304688 263.96651458740234" transform="matrix(1,0,0,1,0,0)"></path><path class="token" fill="#FF0" d="m405.129 160.74 14.04 10.201-5.363 16.504h-17.354l-5.362-16.504 14.039-10.201Zm0 282.149 10.439 4.323 4.324 10.439-4.324 10.438-10.439 4.324-10.438-4.324-4.324-10.438 4.324-10.439 10.438-4.323ZM162.314 160.74l12.784 7.381v14.763l-12.784 7.381-12.784-7.381v-14.763l12.784-7.381Z" style="translate: none; rotate: none; scale: none; transform-origin: 0px 0px; opacity: 1;" data-svg-origin="284.71099853515625 316.5764923095703" transform="matrix(1,0,0,1,0,0)"></path><rect class="token" width="10.5" height="23.3867" x="454.407" y="269.771" fill="#FF0" style="translate: none; rotate: none; scale: none; transform-origin: 0px 0px; opacity: 1;" data-svg-origin="459.656982421875 281.46434688568115" transform="matrix(1,0,0,1,0,0)"></rect><rect class="token" width="10.5" height="23.3867" x="467.487" y="269.771" fill="#FF0" style="translate: none; rotate: none; scale: none; transform-origin: 0px 0px; opacity: 1;" data-svg-origin="472.7370300292969 281.46434688568115" transform="matrix(1,0,0,1,0,0)"></rect><path class="token" fill="#FF0" d="m466.197 335.304 4.345 11.74 11.739 4.344-11.739 4.344-4.345 11.74-4.344-11.74-11.74-4.344 11.74-4.344 4.344-11.74Zm-363.979.626 5.321 13.012 8.609 11.114-13.93-1.899-13.9289 1.899 8.6088-11.114 5.3201-13.012Z" style="translate: none; rotate: none; scale: none; transform-origin: 0px 0px; opacity: 1;" data-svg-origin="285.28504180908203 351.3879699707031" transform="matrix(1,0,0,1,0,0)"></path><defs><clipPath id="a-1230291839218301"><rect width="121.692" height="121.692" fill="#fff" transform="translate(223.252 255.539)"></rect></clipPath></defs></svg>